Coordinates
version=1
nRows=34
nColumns=38
inDegrees=no

Units are S.I. units (second, meters, Newtons, ...)
If the header above contains a line with 'inDegrees', this indicates whether rotational values are in degrees (yes) or radians (no).

endheader
time	pelvis_tilt	pelvis_list	pelvis_rotation	pelvis_tx	pelvis_ty	pelvis_tz	hip_flexion_r	hip_adduction_r	hip_rotation_r	knee_angle_r	ankle_angle_r	subtalar_angle_r	mtp_angle_r	hip_flexion_l	hip_adduction_l	hip_rotation_l	knee_angle_l	ankle_angle_l	subtalar_angle_l	mtp_angle_l	lumbar_extension	lumbar_bending	lumbar_rotation	arm_flex_r	arm_add_r	arm_rot_r	elbow_flex_r	pro_sup_r	wrist_flex_r	wrist_dev_r	arm_flex_l	arm_add_l	arm_rot_l	elbow_flex_l	pro_sup_l	wrist_flex_l	wrist_dev_l
0.53	-1.28096	1.4585	2.80611	0.695746	0.252118	0.920324	-0.0606891	-0.202686	-0.0809765	0.833911	0.0506773	0	0	0.546116	0.141281	-0.255199	0.445056	0.110209	0	0	-0.036383	-0.182684	0.0143701	-0.182666	-0.0994257	-0.16966	0.286337	1.30364	0	0	-0.342987	-0.534304	0.509991	0.771043	0.702658	0	0
0.54	-1.33093	1.45486	2.85871	0.694958	0.266059	0.92112	-0.030747	-0.207769	-0.0599874	0.900964	-0.0137232	0	0	0.545097	0.144494	-0.252474	0.480793	0.108265	0	0	-0.0401753	-0.190365	0.0145417	-0.181284	-0.0966618	-0.174037	0.28308	1.30977	0	0	-0.348647	-0.543671	0.51487	0.778222	0.701993	0	0
0.55	-1.36307	1.45104	2.89229	0.694135	0.279712	0.92166	0.00528687	-0.211443	-0.0369257	0.968757	-0.0832797	0	0	0.540933	0.147119	-0.254373	0.506457	0.103577	0	0	-0.0419039	-0.197026	0.016092	-0.180851	-0.0951967	-0.176946	0.280506	1.31466	0	0	-0.354062	-0.553527	0.520822	0.787221	0.701104	0	0
0.56	-1.37833	1.44572	2.90929	0.693086	0.292962	0.92201	0.0459547	-0.216394	-0.0148466	1.03457	-0.157422	0	0	0.533627	0.15184	-0.260642	0.521314	0.100112	0	0	-0.0415964	-0.204513	0.0171871	-0.181545	-0.0943033	-0.1799	0.280286	1.3195	0	0	-0.359099	-0.563489	0.526372	0.796986	0.699685	0	0
0.57	-1.38548	1.43989	2.91979	0.691793	0.305868	0.922422	0.0867118	-0.221712	0.00364392	1.09416	-0.234181	0	0	0.523239	0.158724	-0.26815	0.528398	0.100893	0	0	-0.04065	-0.212332	0.0162049	-0.183397	-0.0937143	-0.183051	0.283384	1.32426	0	0	-0.363478	-0.572815	0.530546	0.805632	0.698555	0	0
0.58	-1.39049	1.43442	2.9292	0.690438	0.318401	0.923043	0.125661	-0.225592	0.0203999	1.14642	-0.30682	0	0	0.510872	0.166907	-0.273401	0.531311	0.105378	0	0	-0.0402056	-0.219903	0.0135634	-0.18603	-0.0934063	-0.186832	0.29005	1.32969	0	0	-0.366592	-0.581571	0.534136	0.812525	0.697488	0	0
0.59	-1.39837	1.43014	2.94161	0.689185	0.330606	0.924035	0.162726	-0.226705	0.0369278	1.19368	-0.360942	0	0	0.496887	0.175496	-0.273782	0.53227	0.111164	0	0	-0.0410153	-0.2264	0.0102018	-0.188598	-0.0935198	-0.190235	0.29867	1.33452	0	0	-0.368108	-0.588854	0.536125	0.816292	0.697171	0	0
0.6	-1.41321	1.42744	2.96075	0.688073	0.34256	0.925476	0.198483	-0.22473	0.0541771	1.23947	-0.380172	0	0	0.480936	0.184335	-0.267952	0.531933	0.116959	0	0	-0.0431458	-0.231476	0.00487337	-0.201474	-0.104619	-0.0986453	0.331038	1.2156	0	0	-0.370193	-0.594342	0.534985	0.818187	0.699069	0	0
0.61	-1.43231	1.42672	2.98455	0.687107	0.354392	0.92745	0.232078	-0.21927	0.0703146	1.28107	-0.370077	0	0	0.462765	0.192759	-0.255965	0.529638	0.121896	0	0	-0.0473445	-0.234244	0.000801242	-0.19036	-0.0961555	-0.186128	0.314163	1.33419	0	0	-0.368034	-0.598424	0.535023	0.816124	0.699839	0	0
0.62	-1.4597	1.4282	3.01657	0.686168	0.366056	0.929842	0.262731	-0.210949	0.0848254	1.31661	-0.343706	0	0	0.441514	0.199466	-0.241336	0.52513	0.127619	0	0	-0.0528369	-0.234446	-0.00554849	-0.186975	-0.0985973	-0.182182	0.314971	1.33149	0	0	-0.366852	-0.600323	0.53224	0.813016	0.698797	0	0
0.63	-1.49085	1.43141	3.05249	0.685235	0.377596	0.932507	0.291187	-0.201112	0.0965329	1.34595	-0.310269	0	0	0.417804	0.203927	-0.226469	0.51808	0.134108	0	0	-0.0589053	-0.232272	-0.0126121	-0.182317	-0.101742	-0.178196	0.314408	1.32908	0	0	-0.365394	-0.600867	0.528331	0.809656	0.696124	0	0
0.64	-1.5194	1.43577	3.08608	0.68425	0.389012	0.935297	0.318918	-0.19081	0.105281	1.3692	-0.278034	0	0	0.392662	0.206377	-0.212569	0.507729	0.140853	0	0	-0.0643425	-0.228121	-0.0201587	-0.177403	-0.105318	-0.173567	0.313442	1.32556	0	0	-0.363544	-0.600174	0.523766	0.806106	0.69229	0	0
0.65	-1.53909	1.44098	3.11156	0.683151	0.400299	0.938082	0.347073	-0.180708	0.111243	1.38665	-0.252671	0	0	0.367707	0.206942	-0.200178	0.495058	0.146796	0	0	-0.0684375	-0.222303	-0.028136	-0.173044	-0.109086	-0.169194	0.312571	1.32113	0	0	-0.360733	-0.599009	0.520842	0.802752	0.687279	0	0
0.66	-1.55148	1.44687	3.13086	0.681934	0.411428	0.940799	0.375206	-0.170921	0.114559	1.39848	-0.23093	0	0	0.34337	0.205809	-0.19002	0.480954	0.151895	0	0	-0.0717114	-0.215173	-0.0367139	-0.169389	-0.112649	-0.165626	0.312011	1.31535	0	0	-0.356538	-0.598321	0.520729	0.800435	0.681983	0	0
0.67	-1.56325	1.45311	-3.13187	0.680547	0.422379	0.943434	0.402303	-0.162542	0.114869	1.40489	-0.213144	0	0	0.318977	0.203939	-0.180513	0.466035	0.156654	0	0	-0.0753664	-0.207294	-0.046641	-0.166234	-0.115956	-0.16152	0.31185	1.30719	0	0	-0.352042	-0.598176	0.519814	0.800943	0.678211	0	0
0.68	-1.5817	1.45974	-3.10271	0.678975	0.433189	0.946009	0.427319	-0.156068	0.111954	1.40595	-0.200636	0	0	0.293992	0.201481	-0.170391	0.45114	0.161526	0	0	-0.0802882	-0.198585	-0.0581934	-0.164071	-0.119484	-0.154708	0.313869	1.29553	0	0	-0.346563	-0.598405	0.518805	0.80281	0.676674	0	0
0.69	-1.61146	1.46607	-3.06117	0.677285	0.443959	0.948565	0.448879	-0.152253	0.106608	1.40126	-0.191173	0	0	0.26731	0.199233	-0.159044	0.434506	0.165438	0	0	-0.0869403	-0.189607	-0.0695425	-0.153314	-0.11494	-0.226758	0.299288	1.38493	0	0	-0.339493	-0.597602	0.513513	0.803442	0.695983	0	0
0.7	-1.64677	1.47238	-3.01332	0.675527	0.454643	0.950914	0.468495	-0.14982	0.0992756	1.39248	-0.182092	0	0	0.24094	0.196414	-0.147362	0.418535	0.169593	0	0	-0.0934276	-0.180406	-0.0824992	-0.151676	-0.11742	-0.226255	0.302331	1.37913	0	0	-0.332889	-0.59842	0.511723	0.80698	0.705938	0	0
0.71	-1.68892	1.47827	-2.95771	0.673736	0.465275	0.953088	0.485798	-0.148813	0.0901199	1.3795	-0.172121	0	0	0.214188	0.193813	-0.133055	0.402232	0.17302	0	0	-0.100185	-0.171473	-0.0963839	-0.150652	-0.119616	-0.22468	0.306474	1.37157	0	0	-0.32671	-0.599777	0.508385	0.812167	0.719536	0	0
0.72	-1.72265	1.48396	-2.91063	0.67201	0.475843	0.954879	0.503571	-0.149078	0.0804482	1.36339	-0.162112	0	0	0.189666	0.190796	-0.119305	0.387083	0.176575	0	0	-0.105257	-0.162976	-0.109924	-0.149997	-0.121633	-0.22287	0.310739	1.3651	0	0	-0.320639	-0.601896	0.505948	0.818291	0.730674	0	0
0.73	-1.74949	1.48935	-2.8705	0.670324	0.48635	0.956308	0.521232	-0.151032	0.0700019	1.3441	-0.14937	0	0	0.166741	0.187752	-0.105789	0.372213	0.179807	0	0	-0.109122	-0.154991	-0.123083	-0.149565	-0.123501	-0.220459	0.315468	1.35732	0	0	-0.314371	-0.604606	0.504324	0.824887	0.740992	0	0
0.74	-1.76988	1.49439	-2.83727	0.66872	0.496817	0.957406	0.538365	-0.154088	0.0593591	1.32133	-0.134198	0	0	0.145526	0.184564	-0.0926497	0.358629	0.183216	0	0	-0.111918	-0.147685	-0.13549	-0.14887	-0.125079	-0.217343	0.319547	1.34852	0	0	-0.307907	-0.60778	0.503641	0.832041	0.748723	0	0
0.75	-1.78058	1.49895	-2.81484	0.667267	0.507268	0.958176	0.554686	-0.157576	0.0489514	1.29512	-0.11781	0	0	0.127002	0.181069	-0.0822341	0.348298	0.187673	0	0	-0.113431	-0.141414	-0.146416	-0.147897	-0.126346	-0.213227	0.322377	1.33965	0	0	-0.300805	-0.611246	0.504469	0.83887	0.753154	0	0
0.76	-1.80192	1.50173	-2.78152	0.66582	0.517749	0.958889	0.567561	-0.163697	0.0368982	1.26532	-0.100935	0	0	0.106195	0.179456	-0.0671508	0.335405	0.189893	0	0	-0.116342	-0.136973	-0.157582	-0.144891	-0.125921	-0.219601	0.321369	1.34174	0	0	-0.294	-0.613838	0.499817	0.844791	0.781085	0	0
0.77	-1.82835	1.50591	-2.74797	0.663696	0.528009	0.959155	0.582332	-0.176493	0.0282046	1.2312	-0.0801443	0	0	0.0884529	0.181599	-0.0491204	0.327236	0.18953	0	0	-0.11817	-0.12991	-0.164459	-0.142303	-0.127848	-0.217014	0.322818	1.33364	0	0	-0.285693	-0.616191	0.502529	0.851199	0.78724	0	0
0.78	-1.83313	1.50807	-2.7339	0.662555	0.538575	0.959355	0.593444	-0.183788	0.0166726	1.1944	-0.065743	0	0	0.070926	0.179668	-0.0374772	0.318272	0.193525	0	0	-0.119233	-0.127256	-0.171563	-0.141144	-0.127318	-0.214286	0.324531	1.32497	0	0	-0.275461	-0.620119	0.50712	0.855766	0.792288	0	0
0.79	-1.84225	1.50944	-2.71618	0.661544	0.549188	0.9594	0.602196	-0.192217	0.00352727	1.15441	-0.0519117	0	0	0.0529518	0.177946	-0.0249517	0.30985	0.197766	0	0	-0.120781	-0.125552	-0.177476	-0.140208	-0.126337	-0.210981	0.326719	1.31605	0	0	-0.263674	-0.623858	0.51329	0.858968	0.79612	0	0
0.8	-1.86398	1.50899	-2.6857	0.660548	0.560105	0.959289	0.608838	-0.207277	-0.0191213	1.11382	-0.0397389	0	0	0.0324943	0.177494	-0.0125182	0.29961	0.202684	0	0	-0.12339	-0.125452	-0.183094	-0.140145	-0.124991	-0.207366	0.329772	1.30684	0	0	-0.251214	-0.627655	0.520724	0.861137	0.79905	0	0
0.81	-1.89663	1.50969	-2.64643	0.659903	0.570877	0.959123	0.611962	-0.216532	-0.0376866	1.06718	-0.0279799	0	0	0.0129142	0.175073	-0.00277628	0.290534	0.208846	0	0	-0.126209	-0.123913	-0.186108	-0.139336	-0.123681	-0.203731	0.332488	1.29705	0	0	-0.236911	-0.629929	0.528573	0.86083	0.801643	0	0
0.82	-1.92628	1.50923	-2.60673	0.660165	0.581901	0.959037	0.610053	-0.220852	-0.0632156	1.01722	-0.0217979	0	0	-0.00740785	0.166759	-0.000874324	0.28031	0.219683	0	0	-0.129803	-0.125006	-0.190158	-0.1396	-0.120385	-0.19966	0.334243	1.28671	0	0	-0.220439	-0.632813	0.536729	0.858648	0.803616	0	0
0.83	-1.94709	1.51101	-2.58226	0.659852	0.592703	0.958401	0.610978	-0.223833	-0.076759	0.964217	-0.00931704	0	0	-0.0236401	0.162976	0.0055703	0.274802	0.227639	0	0	-0.131064	-0.123089	-0.189663	-0.138402	-0.119362	-0.194074	0.335857	1.27678	0	0	-0.205305	-0.633302	0.543676	0.857009	0.804712	0	0
0.84	-2.02644	1.5117	-2.49953	0.659482	0.603744	0.957994	0.605291	-0.226062	-0.0942426	0.907849	0.00349628	0	0	-0.0463325	0.158278	0.0157212	0.264219	0.233903	0	0	-0.136026	-0.119538	-0.187844	-0.132844	-0.114621	-0.227522	0.330331	1.31651	0	0	-0.187423	-0.631108	0.54963	0.849792	0.82361	0	0
0.85	-2.07569	1.51299	-2.44768	0.659279	0.614903	0.957202	0.601297	-0.227877	-0.111981	0.850602	0.0142602	0	0	-0.0658847	0.15357	0.0232618	0.255844	0.241488	0	0	-0.138046	-0.116941	-0.186302	-0.130997	-0.113421	-0.224423	0.331388	1.30961	0	0	-0.172183	-0.629393	0.555536	0.845145	0.82781	0	0
0.86	-2.11863	1.51439	-2.4034	0.659247	0.626266	0.956221	0.596786	-0.228519	-0.129818	0.792038	0.0241195	0	0	-0.0851449	0.148799	0.0291612	0.24712	0.249034	0	0	-0.139018	-0.11479	-0.184208	-0.129024	-0.112168	-0.220513	0.332102	1.30278	0	0	-0.15892	-0.626638	0.558528	0.840708	0.831237	0	0
